<svg width="40" height="40" viewBox="0 0 40 40" fill="none" xmlns="http://www.w3.org/2000/svg">
<rect width="40" height="40" rx="12" fill="#07617D"/>
<g clip-path="url(#clip0_1750_5564)">
<path d="M10.75 15C10.75 13.6739 11.2768 12.4021 12.2145 11.4645C13.1521 10.5268 14.4239 10 15.75 10C17.0761 10 18.3479 10.5268 19.2855 11.4645C20.2232 12.4021 20.75 13.6739 20.75 15C20.75 16.3261 20.2232 17.5979 19.2855 18.5355C18.3479 19.4732 17.0761 20 15.75 20C14.4239 20 13.1521 19.4732 12.2145 18.5355C11.2768 17.5979 10.75 16.3261 10.75 15ZM7 28.8398C7 24.9922 10.1172 21.875 13.9648 21.875H17.5352C21.3828 21.875 24.5 24.9922 24.5 28.8398C24.5 29.4805 23.9805 30 23.3398 30H8.16016C7.51953 30 7 29.4805 7 28.8398ZM26.6875 22.1875V19.6875H24.1875C23.668 19.6875 23.25 19.2695 23.25 18.75C23.25 18.2305 23.668 17.8125 24.1875 17.8125H26.6875V15.3125C26.6875 14.793 27.1055 14.375 27.625 14.375C28.1445 14.375 28.5625 14.793 28.5625 15.3125V17.8125H31.0625C31.582 17.8125 32 18.2305 32 18.75C32 19.2695 31.582 19.6875 31.0625 19.6875H28.5625V22.1875C28.5625 22.707 28.1445 23.125 27.625 23.125C27.1055 23.125 26.6875 22.707 26.6875 22.1875Z" fill="white"/>
</g>
<defs>
<clipPath id="clip0_1750_5564">
<rect width="25" height="20" fill="white" transform="translate(7 10)"/>
</clipPath>
</defs>
</svg>
