<svg width="20" height="20" viewBox="0 0 20 20" fill="none" xmlns="http://www.w3.org/2000/svg">
  <path fill-rule="evenodd" clip-rule="evenodd" d="M5 1C5.55228 1 6 1.44772 6 2V5C6 5.55229 5.55228 6 5 6C4.44772 6 4 5.55229 4 5V2C4 1.44772 4.44772 1 5 1ZM13 4H7V5C7 6.10457 6.10457 7 5 7C3.89543 7 3 6.10457 3 5V4H2.5C1.67157 4 1 4.67157 1 5.5V6.5V8V17.5C1 18.3284 1.67157 19 2.5 19H17.5C18.3284 19 19 18.3284 19 17.5V8V6.5V5.5C19 4.67157 18.3284 4 17.5 4H17V5C17 6.10457 16.1046 7 15 7C13.8954 7 13 6.10457 13 5V4ZM3 9V17H17V9H3ZM16 2C16 1.44772 15.5523 1 15 1C14.4477 1 14 1.44772 14 2V5C14 5.55229 14.4477 6 15 6C15.5523 6 16 5.55229 16 5V2Z" fill="#2E383F"/>
</svg>
