<svg width="20" height="20" viewBox="0 0 20 20" fill="none" xmlns="http://www.w3.org/2000/svg">
  <path d="M5.00086 7.48098H14.5929L9.79686 1.99998L5.00086 7.48098ZM4.24786 6.82198L9.04386 1.34198C9.13772 1.23457 9.25347 1.14848 9.38335 1.0895C9.51322 1.03052 9.65422 1 9.79686 1C9.9395 1 10.0805 1.03052 10.2104 1.0895C10.3402 1.14848 10.456 1.23457 10.5499 1.34198L15.3459 6.82198C15.9119 7.46898 15.4519 8.48098 14.5929 8.48098H5.00086C4.80861 8.48114 4.6204 8.42589 4.45875 8.32184C4.2971 8.21779 4.16886 8.06934 4.08941 7.89429C4.00995 7.71923 3.98264 7.52498 4.01074 7.3348C4.03884 7.14462 4.12117 6.96657 4.24786 6.82198Z" fill="black"/>
</svg>
