<svg width="20" height="20" viewBox="0 0 20 20" fill="none" xmlns="http://www.w3.org/2000/svg">
  <path d="M14.5944 12.0005H5.00236L9.79836 17.4815L14.5944 12.0005ZM15.3474 12.6595L10.5514 18.1395C10.4575 18.2469 10.3417 18.333 10.2119 18.3919C10.082 18.4509 9.941 18.4814 9.79836 18.4814C9.65571 18.4814 9.51472 18.4509 9.38485 18.3919C9.25497 18.333 9.13922 18.2469 9.04536 18.1395L4.24936 12.6595C3.68336 12.0125 4.14336 11.0005 5.00236 11.0005H14.5944C14.7866 11.0003 14.9748 11.0556 15.1365 11.1596C15.2981 11.2637 15.4264 11.4121 15.5058 11.5872C15.5853 11.7622 15.6126 11.9565 15.5845 12.1466C15.5564 12.3368 15.474 12.5149 15.3474 12.6595Z" fill="black"/>
</svg>
