<svg width="40" height="40" viewBox="0 0 40 40" fill="none" xmlns="http://www.w3.org/2000/svg">
<rect width="40" height="40" rx="12" fill="#07617D"/>
<path d="M15.75 20C17.0761 20 18.3479 19.4732 19.2855 18.5355C20.2232 17.5979 20.75 16.3261 20.75 15C20.75 13.6739 20.2232 12.4021 19.2855 11.4645C18.3479 10.5268 17.0761 10 15.75 10C14.4239 10 13.1521 10.5268 12.2145 11.4645C11.2768 12.4021 10.75 13.6739 10.75 15C10.75 16.3261 11.2768 17.5979 12.2145 18.5355C13.1521 19.4732 14.4239 20 15.75 20ZM13.9648 21.875C10.1172 21.875 7 24.9922 7 28.8398C7 29.4805 7.51953 30 8.16016 30H22.3359C22.125 29.6328 22 29.207 22 28.75V23.75C22 23.668 22.0039 23.5859 22.0117 23.5039C20.8008 22.4883 19.2383 21.875 17.5352 21.875H13.9648ZM27.625 19.375C28.3164 19.375 28.875 19.9336 28.875 20.625V22.5H26.375V20.625C26.375 19.9336 26.9336 19.375 27.625 19.375ZM24.5 20.625V22.5C23.8086 22.5 23.25 23.0586 23.25 23.75V28.75C23.25 29.4414 23.8086 30 24.5 30H30.75C31.4414 30 32 29.4414 32 28.75V23.75C32 23.0586 31.4414 22.5 30.75 22.5V20.625C30.75 18.8984 29.3516 17.5 27.625 17.5C25.8984 17.5 24.5 18.8984 24.5 20.625Z" fill="white"/>
</svg>
