<svg width="40" height="40" viewBox="0 0 40 40" fill="none" xmlns="http://www.w3.org/2000/svg">
<path fill-rule="evenodd" clip-rule="evenodd" d="M7 2.75C5.75736 2.75 4.75 3.75736 4.75 5V35C4.75 36.2426 5.75736 37.25 7 37.25H20.5241C19.8228 36.5235 19.2426 35.6793 18.8161 34.75H7.25V5.25H21.0985V13C21.0985 14.2426 22.1058 15.25 23.3485 15.25H30.75V22.8161C31.6793 23.2426 32.5235 23.8228 33.25 24.5241V14C33.25 13.6762 33.1243 13.3649 32.8994 13.1319L23.2479 3.13193C23.0123 2.88786 22.6877 2.75 22.3485 2.75H7ZM29.0563 12.75L23.5985 7.0951V12.75H29.0563Z" fill="#2E383F"/>
<path d="M23.2107 32.1593L25.7537 34.7349C25.8515 34.834 26.0115 34.834 26.1094 34.735L31.8942 28.8824" stroke="#2E383F" stroke-width="2" stroke-linecap="round"/>
</svg>
