<svg width="40" height="40" viewBox="0 0 40 40" fill="none" xmlns="http://www.w3.org/2000/svg">
<path fill-rule="evenodd" clip-rule="evenodd" d="M7 2.75C5.75736 2.75 4.75 3.75736 4.75 5V35C4.75 36.2426 5.75736 37.25 7 37.25H20.5241C19.8228 36.5235 19.2426 35.6793 18.8161 34.75H7.25V5.25H21.0985V13C21.0985 14.2426 22.1058 15.25 23.3485 15.25H30.75V22.8161C31.6793 23.2426 32.5235 23.8228 33.25 24.5241V14C33.25 13.6762 33.1243 13.3649 32.8994 13.1319L23.2479 3.13193C23.0123 2.88786 22.6877 2.75 22.3485 2.75H7ZM29.0563 12.75L23.5985 7.0951V12.75H29.0563Z" fill="#2E383F"/>
<path d="M22.9816 35.6875H29.0186C29.56 35.6875 29.9907 35.2421 29.9324 34.7288C29.5564 31.4219 27.3126 31.4766 27.3126 30C27.3126 28.5234 29.5851 28.6055 29.9321 25.2712C29.9868 24.7577 29.56 24.3125 29.0186 24.3125H22.9816C22.4402 24.3125 22.0145 24.7577 22.0681 25.2712C22.4151 28.6055 24.6876 28.4961 24.6876 30C24.6876 31.5039 22.4438 31.4219 22.0681 34.7288C22.0096 35.2421 22.4402 35.6875 22.9816 35.6875Z" stroke="#2E383F" stroke-linecap="round" stroke-linejoin="round"/>
<path d="M28.3872 34.8125H23.6247C23.1981 34.8125 23.0778 34.3203 23.377 34.0152C24.101 33.2812 25.5626 32.7557 25.5626 31.9141V29.125C25.5626 28.5822 24.5235 28.168 23.8806 27.2875C23.7746 27.1423 23.7852 26.9375 24.0548 26.9375H27.9576C28.1876 26.9375 28.2373 27.1407 28.1326 27.2861C27.499 28.168 26.4376 28.5795 26.4376 29.125V31.9141C26.4376 32.7489 27.9609 33.1992 28.636 34.016C28.9081 34.3452 28.8129 34.8125 28.3872 34.8125Z" fill="#2E383F"/>
</svg>
