<svg width="40" height="40" viewBox="0 0 40 40" fill="none" xmlns="http://www.w3.org/2000/svg">
<rect width="40" height="40" rx="12" fill="#FDC57B"/>
<g clip-path="url(#clip0_1750_5577)">
<path d="M26.6875 18.3438C26.6875 20.4057 26.0182 22.3104 24.8906 23.8557L30.5777 29.5473C31.1393 30.1088 31.1393 31.0207 30.5777 31.5822C30.0162 32.1438 29.1043 32.1438 28.5428 31.5822L22.8557 25.8906C21.3104 27.0227 19.4057 27.6875 17.3438 27.6875C12.1822 27.6875 8 23.5053 8 18.3438C8 13.1822 12.1822 9 17.3438 9C22.5053 9 26.6875 13.1822 26.6875 18.3438ZM17.3438 24.8125C18.1932 24.8125 19.0344 24.6452 19.8192 24.3201C20.6041 23.995 21.3172 23.5185 21.9178 22.9178C22.5185 22.3172 22.995 21.6041 23.3201 20.8192C23.6452 20.0344 23.8125 19.1932 23.8125 18.3438C23.8125 17.4943 23.6452 16.6531 23.3201 15.8683C22.995 15.0834 22.5185 14.3703 21.9178 13.7697C21.3172 13.169 20.6041 12.6925 19.8192 12.3674C19.0344 12.0423 18.1932 11.875 17.3438 11.875C16.4943 11.875 15.6531 12.0423 14.8683 12.3674C14.0834 12.6925 13.3703 13.169 12.7697 13.7697C12.169 14.3703 11.6925 15.0834 11.3674 15.8683C11.0423 16.6531 10.875 17.4943 10.875 18.3438C10.875 19.1932 11.0423 20.0344 11.3674 20.8192C11.6925 21.6041 12.169 22.3172 12.7697 22.9178C13.3703 23.5185 14.0834 23.995 14.8683 24.3201C15.6531 24.6452 16.4943 24.8125 17.3438 24.8125Z" fill="white"/>
</g>
<defs>
<clipPath id="clip0_1750_5577">
<rect width="23" height="23" fill="white" transform="translate(8 9)"/>
</clipPath>
</defs>
</svg>
