<svg width="36" height="36" viewBox="0 0 36 36" fill="none" xmlns="http://www.w3.org/2000/svg">
  <g clip-path="url(#clip0_1318_7693)">
    <g clip-path="url(#clip1_1318_7693)">
      <path d="M34.59 23.0002L30.51 18.0002L34.51 13.1002C34.7288 12.8322 34.8666 12.5073 34.9074 12.1637C34.9481 11.8201 34.89 11.472 34.74 11.1602C34.588 10.8108 34.336 10.5141 34.0156 10.3077C33.6953 10.1013 33.321 9.99429 32.94 10.0002H1.94C1.68917 9.99627 1.44001 10.0418 1.20676 10.1341C0.973502 10.2264 0.760723 10.3638 0.580571 10.5384C0.400419 10.713 0.256424 10.9213 0.156808 11.1516C0.0571926 11.3818 0.00390885 11.6294 0 11.8802L0 24.1302C0.0105107 24.6351 0.220501 25.1152 0.58405 25.4656C0.947598 25.8161 1.43512 26.0083 1.94 26.0002H33.05C33.4183 26.0064 33.7806 25.907 34.0943 25.7139C34.4079 25.5207 34.6597 25.2419 34.82 24.9102C34.9639 24.6022 35.0186 24.26 34.978 23.9224C34.9373 23.5848 34.8029 23.2653 34.59 23.0002ZM2 24.0002V12.0002H32.78L27.94 17.9302L32.85 24.0002H2Z" fill="black"/>
      <path d="M9.39 19.35L6.13 15H5V21.18H6.13V16.84L9.39 21.18H10.51V15H9.39V19.35Z" fill="black"/>
      <path d="M12.1799 21.18H16.8399V20.16H13.3099V18.55H16.4999V17.52H13.3099V16.03H16.8399V15H12.1799V21.18Z" fill="black"/>
      <path d="M24.5201 19.43L23.0601 15H21.8401L20.3701 19.43L19.0501 15H17.8201L19.7801 21.18H20.8901L22.4501 16.59L24.0001 21.18H25.1301L27.0801 15H25.8501L24.5201 19.43Z" fill="black"/>
    </g>
  </g>
  <defs>
    <clipPath id="clip0_1318_7693">
      <rect width="36" height="36" fill="white"/>
    </clipPath>
    <clipPath id="clip1_1318_7693">
      <rect width="36" height="36" fill="white"/>
    </clipPath>
  </defs>
</svg>
