<svg width="21" height="6" viewBox="0 0 14 4" fill="none" xmlns="http://www.w3.org/2000/svg">
  <path fill-rule="evenodd" clip-rule="evenodd" d="M12 0.5C11.1716 0.5 10.5 1.17157 10.5 2C10.5 2.82843 11.1716 3.5 12 3.5C12.8284 3.5 13.5 2.82843 13.5 2C13.5 1.17157 12.8284 0.5 12 0.5ZM7 0.5C6.17157 0.5 5.5 1.17157 5.5 2C5.5 2.82843 6.17157 3.5 7 3.5C7.82843 3.5 8.5 2.82843 8.5 2C8.5 1.17157 7.82843 0.5 7 0.5ZM0.5 2C0.5 1.17157 1.17157 0.5 2 0.5C2.82843 0.5 3.5 1.17157 3.5 2C3.5 2.82843 2.82843 3.5 2 3.5C1.17157 3.5 0.5 2.82843 0.5 2Z" fill="#929292"/>
</svg>
