<svg width="19" height="17" viewBox="0 0 19 17" fill="none" xmlns="http://www.w3.org/2000/svg">
  <path d="M6.66667 16H12.3333M6.66667 16V11.8333M6.66667 16H1.56667C1.41638 16 1.27224 15.9473 1.16597 15.8536C1.0597 15.7598 1 15.6326 1 15.5V12.3333C1 12.2007 1.0597 12.0735 1.16597 11.9798C1.27224 11.886 1.41638 11.8333 1.56667 11.8333H6.66667M12.3333 16V6M12.3333 16H17.4333C17.5836 16 17.7278 15.9473 17.834 15.8536C17.9403 15.7598 18 15.6326 18 15.5V1.5C18 1.36739 17.9403 1.24021 17.834 1.14645C17.7278 1.05268 17.5836 1 17.4333 1H12.9C12.7497 1 12.6056 1.05268 12.4993 1.14645C12.393 1.24021 12.3333 1.36739 12.3333 1.5V6M6.66667 11.8333V6.5C6.66667 6.36739 6.72637 6.24021 6.83264 6.14645C6.93891 6.05268 7.08304 6 7.23333 6H12.3333" stroke="#2E383F" stroke-width="1.5"/>
</svg>
