<svg width="20" height="20" viewBox="0 0 20 20" fill="none" xmlns="http://www.w3.org/2000/svg">
  <g clip-path="url(#clip0_739_4293)">
      <path fill-rule="evenodd" clip-rule="evenodd" d="M9.35042 3.22741C7.21979 1.24155 3.80526 3.21293 4.45975 6.05104C4.57216 6.53852 4.28845 7.02994 3.81006 7.17632C1.02495 8.02858 1.02495 11.9713 3.81006 12.8236C4.28845 12.97 4.57216 13.4614 4.45975 13.9489C3.80526 16.787 7.21979 18.7584 9.35042 16.7725C9.71639 16.4314 10.2838 16.4314 10.6498 16.7725C12.7804 18.7584 16.1949 16.787 15.5405 13.9489C15.428 13.4614 15.7118 12.97 16.1901 12.8236C18.9753 11.9713 18.9753 8.02858 16.1901 7.17633C15.7118 7.02994 15.428 6.53852 15.5405 6.05104C16.1949 3.21293 12.7804 1.24156 10.6498 3.22741C10.2838 3.56851 9.71639 3.56851 9.35042 3.22741ZM6.4086 5.60162C6.1974 4.68578 7.29925 4.04963 7.98679 4.69045C9.12089 5.74749 10.8793 5.74749 12.0134 4.69045C12.701 4.04963 13.8028 4.68578 13.5916 5.60162C13.2432 7.1123 14.1225 8.63515 15.6049 9.08879C16.5037 9.36381 16.5037 10.6361 15.6049 10.9111C14.1225 11.3648 13.2432 12.8876 13.5916 14.3983C13.8028 15.3141 12.701 15.9503 12.0134 15.3095C10.8793 14.2524 9.12089 14.2524 7.98679 15.3095C7.29925 15.9503 6.1974 15.3141 6.4086 14.3983C6.75697 12.8876 5.87775 11.3648 4.39528 10.9111C3.49654 10.6361 3.49654 9.36381 4.39528 9.08879C5.87775 8.63515 6.75697 7.1123 6.4086 5.60162ZM10.8661 9.49996C11.1423 9.97825 10.9784 10.5898 10.5001 10.866C10.0218 11.1421 9.41022 10.9782 9.13408 10.5C8.85794 10.0217 9.02181 9.41007 9.5001 9.13393C9.9784 8.85779 10.59 9.02166 10.8661 9.49996ZM12.5982 8.49996C13.4266 9.93483 12.935 11.7696 11.5001 12.598C10.0652 13.4265 8.23045 12.9348 7.40203 11.5C6.5736 10.0651 7.06523 8.23031 8.5001 7.40188C9.93498 6.57345 11.7698 7.06508 12.5982 8.49996Z" fill="#2E383F"/>
  </g>
  <defs>
      <clipPath id="clip0_739_4293">
          <rect width="20" height="20" fill="white"/>
      </clipPath>
  </defs>
</svg>
