<svg width="20" height="20" viewBox="0 0 20 20" fill="none" xmlns="http://www.w3.org/2000/svg">
  <path d="M6.66667 15H3.33333C3.09722 15 2.89944 14.92 2.74 14.76C2.58 14.6006 2.5 14.4028 2.5 14.1667C2.5 13.9306 2.58 13.7328 2.74 13.5733C2.89944 13.4133 3.09722 13.3333 3.33333 13.3333H6.66667C6.90278 13.3333 7.10083 13.4133 7.26083 13.5733C7.42028 13.7328 7.5 13.9306 7.5 14.1667C7.5 14.4028 7.42028 14.6006 7.26083 14.76C7.10083 14.92 6.90278 15 6.66667 15ZM16.6667 6.66667H3.33333C3.09722 6.66667 2.89944 6.58694 2.74 6.4275C2.58 6.2675 2.5 6.06944 2.5 5.83333C2.5 5.59722 2.58 5.39917 2.74 5.23917C2.89944 5.07972 3.09722 5 3.33333 5H16.6667C16.9028 5 17.1006 5.07972 17.26 5.23917C17.42 5.39917 17.5 5.59722 17.5 5.83333C17.5 6.06944 17.42 6.2675 17.26 6.4275C17.1006 6.58694 16.9028 6.66667 16.6667 6.66667ZM11.6667 10.8333H3.33333C3.09722 10.8333 2.89944 10.7533 2.74 10.5933C2.58 10.4339 2.5 10.2361 2.5 10C2.5 9.76389 2.58 9.56583 2.74 9.40583C2.89944 9.24639 3.09722 9.16667 3.33333 9.16667H11.6667C11.9028 9.16667 12.1008 9.24639 12.2608 9.40583C12.4203 9.56583 12.5 9.76389 12.5 10C12.5 10.2361 12.4203 10.4339 12.2608 10.5933C12.1008 10.7533 11.9028 10.8333 11.6667 10.8333Z" fill="#616161"/>
</svg>
