<svg width="20" height="20" viewBox="0 0 20 20" fill="none" xmlns="http://www.w3.org/2000/svg">
  <g clip-path="url(#clip0_937_4330)">
    <circle cx="10" cy="10" r="10" fill="#E3E3E3"/>
    <path d="M10.0002 9.99999C9.29348 9.99999 8.61015 9.68704 8.0753 9.11909C7.55524 8.56511 7.23763 7.82636 7.18161 7.03954C7.1218 6.20023 7.37994 5.42841 7.90825 4.86591C8.43657 4.30341 9.17524 4 10.0002 4C10.8193 4 11.56 4.30886 12.0866 4.87C12.6184 5.43659 12.8772 6.20704 12.8174 7.0392C12.76 7.82704 12.4427 8.56545 11.9237 9.11874C11.3902 9.68704 10.7072 9.99999 10.0002 9.99999ZM14.5316 16H5.46914C5.32344 16.0008 5.1795 15.9684 5.0484 15.9053C4.9173 15.8422 4.80253 15.7502 4.71294 15.6362C4.6179 15.5127 4.55226 15.3694 4.52095 15.2172C4.48964 15.0649 4.49347 14.9076 4.53213 14.757C4.82156 13.6044 5.53858 12.6485 6.60551 11.9929C7.55249 11.4114 8.75795 11.0909 10.0002 11.0909C11.2668 11.0909 12.4407 11.3977 13.3932 11.979C14.4625 12.6311 15.1805 13.5925 15.4686 14.7591C15.5068 14.9098 15.5102 15.0671 15.4785 15.2193C15.4469 15.3714 15.381 15.5146 15.2857 15.6379C15.1962 15.7514 15.0817 15.843 14.951 15.9057C14.8203 15.9685 14.6768 16.0007 14.5316 16Z" fill="#2E383F"/>
  </g>
  <defs>
    <clipPath id="clip0_937_4330">
      <rect width="20" height="20" fill="white"/>
    </clipPath>
  </defs>
</svg>
