<svg width="40" height="40" viewBox="0 0 40 40" fill="none" xmlns="http://www.w3.org/2000/svg">
  <path d="M26.2499 20C24.6437 20 23.0905 19.2828 21.8749 17.9813C20.6929 16.7117 19.971 15.0188 19.8437 13.2156C19.7077 11.2922 20.2944 9.52344 21.4952 8.23438C22.696 6.94531 24.3749 6.25 26.2499 6.25C28.1116 6.25 29.7952 6.95781 30.9921 8.24375C32.2007 9.54219 32.789 11.3078 32.653 13.2148C32.5226 15.0203 31.8015 16.7125 30.6218 17.9805C29.4093 19.2828 27.8569 20 26.2499 20ZM36.5491 33.75H15.9515C15.6203 33.7518 15.2932 33.6775 14.9952 33.533C14.6972 33.3885 14.4364 33.1776 14.2327 32.9164C14.0167 32.6333 13.8675 32.305 13.7964 31.9561C13.7252 31.6072 13.7339 31.2467 13.8218 30.9016C14.4796 28.2602 16.1093 26.0695 18.5343 24.5672C20.6866 23.2344 23.4265 22.5 26.2499 22.5C29.1288 22.5 31.7968 23.2031 33.9616 24.5352C36.3921 26.0297 38.0241 28.2328 38.6788 30.9063C38.7656 31.2516 38.7734 31.6121 38.7014 31.9608C38.6294 32.3096 38.4796 32.6376 38.2632 32.9203C38.0598 33.1803 37.7995 33.3902 37.5024 33.534C37.2053 33.6778 36.8792 33.7517 36.5491 33.75ZM11.4843 20.3125C8.73507 20.3125 6.31788 17.7563 6.09366 14.6148C5.98272 13.0055 6.48429 11.5172 7.49991 10.4258C8.5046 9.34531 9.92179 8.75 11.4843 8.75C13.0468 8.75 14.453 9.34844 15.4632 10.4352C16.4866 11.5352 16.9866 13.0203 16.8694 14.6164C16.6452 17.757 14.2288 20.3125 11.4843 20.3125ZM16.614 22.7695C15.2398 22.0977 13.4562 21.7617 11.4851 21.7617C9.1835 21.7617 6.94835 22.3617 5.19054 23.4508C3.19757 24.6875 1.85694 26.4883 1.31554 28.6625C1.23631 28.9752 1.22881 29.3018 1.29362 29.6179C1.35842 29.9339 1.49384 30.2312 1.68975 30.4875C1.87565 30.7261 2.11381 30.919 2.3859 31.0512C2.658 31.1834 2.95678 31.2514 3.25929 31.25H11.9312C12.0775 31.25 12.2192 31.1986 12.3316 31.1048C12.444 31.011 12.5198 30.8807 12.546 30.7367C12.5546 30.6875 12.5655 30.6383 12.578 30.5898C13.2405 27.9289 14.7929 25.6805 17.0866 24.0414C17.171 23.9806 17.2389 23.8997 17.284 23.806C17.3292 23.7124 17.3504 23.6089 17.3455 23.505C17.3406 23.4011 17.3099 23.3001 17.2561 23.2111C17.2023 23.1221 17.1271 23.0479 17.0374 22.9953C16.9148 22.9234 16.7741 22.8477 16.614 22.7695Z" fill="#2E383F"/>
</svg>
